<?xml version="1.0" encoding="UTF-8"?><svg xmlns="http://www.w3.org/2000/svg" viewBox="0 0 63.2505 42.11152"><defs><style>.d{fill:#0b6e4f;}.e{fill:#08a045;}</style></defs><g id="a"/><g id="b"><g id="c"><g><path class="d" d="M36.49171,42.05811c-4.88231,0-8.75111-1.68224-11.13518-4.61093-1.26201-1.55032-2.39268-3.69604-1.64268-6.71434,1.99673-8.03561,8.38516-8.72393,7.13414-9.01829-.62195-.14635-2.4747,.79694-3.64633,1.59756-.7317,.5-3.47562,3.02439-4.0244,4.64634-.10876,.32148-.56386,.05485-.56595-.02439-.12917-4.90244-.70633-21.94274,.0806-25.17404,.18474-.75856,.78062-1.79679,2.76001-2.76001H60.4905c1.52431,0,2.75999,1.67472,2.75999,3.19904V7.97925c0,1.52431-1.23569,2.76001-2.75999,2.76001h-23.87892c-1.52431,0-2.76001,1.23569-2.76001,2.76001,0,.90441,.17935,2.85552,.17935,3.98966-.14783,.09549-1.87944,3.38875-1.04269,3.14635,3.99242-6.36793,16.80489-4.47625,18.65096-4.30695,1.60407,.1471,3.69509,.57972,3.69512,.57982,0,0,.12805,1.20676-2.57168,4.33078-3.77007,3.26802-6.54634,3.47301-8.43715,3.67928-2.29834,.25073-4.9615,.06218-7.85553-.97196-1.98866-.71061-2.56271,3.65432-2.51031,4.10208,.33064,2.82549,1.65662,3.33009,6.91147,3.33009h19.6194c1.52431,0,2.75999,1.2357,2.75999,2.76001v5.21309c0,1.52672-1.23944,2.7634-2.76614,2.75999l-23.99265-.05341Z"/><path class="e" d="M1.75647,15.33406c3.54877,1.70732,3.01181,9.20846,7.68292,11.5122,2.2378,1.10366,3.32932,.25235,6.44512,2.47561,3.5122,2.5061,5.14729,8.0668,5.82318,7.81707,.48717-.17999-.75666-4.61128-1.56438-6.33238-1.0993-2.3424-.6061-1.26923-1.75784-3.24484-1.18239-2.02819-3.36216-3.76571-3.86585-4.8506-.31707-.68293,2.46707,1.55203,4.17857,3.89462,2.26655,3.10232,2.87798,6.16995,3.29268,5.87195,.18228-.13098,.04348-2.67207-.34756-4.02438-1.60084-5.5361-5.83797-9.21674-5.83805-9.2168-5.11111-4.0364-10.41182-4.86012-13.07317-4.87805-.42276-.00285-2.69753-.01818-2.7317,.29269-.02393,.21763,1.10086,.36769,1.7561,.68292Z"/><path class="e" d="M21.17401,5.14244c-1.77438,.85366-1.50591,4.60423-3.84146,5.7561-1.1189,.55183-1.66466,.12618-3.22256,1.23781-1.75609,1.25305-2.57364,4.0334-2.91159,3.90854-.24358-.09,.4239-2.28569,.7822-3.16619,.27353-.67219,.61021-1.35261,.71341-1.54249,.10811-.19888,2.03526-2.83321,2.08977-2.77913,.0506,.05021-1.22432,1.05031-2.08061,2.22121-.70296,.96121-1.439,3.08498-1.64635,2.93597-.09114-.06549,.13104-1.85378,.17378-2.01219,.75064-2.78197,2.91899-4.60837,2.91902-4.6084,2.55556-2.0182,5.20592-2.43006,6.53659-2.43903,.21138-.00143,1.34877-.00909,1.36586,.14634,.01196,.10882-.55043,.18385-.87805,.34146Z"/><path class="e" d="M42.40682,17.1405c4.73211-.37005,9.17031,.60245,9.17031,.60245,0,0-2.61255,1.98838-6.26721,1.78963-2.87291-.15623-2.50927-.21919-4.25-.19207-2.34864,.03659-5.70535,1.38597-5.70535,1.38597,0,0,3.24695-3.28841,7.05225-3.58599Z"/></g></g></g></svg>