<svg width="152" height="130" viewBox="0 0 162 150" fill="none" xmlns="http://www.w3.org/2000/svg">
<path d="M113.332 44.5547H32.2131C13.6517 56.62 1.48535 82.6666 1.48535 105.446C1.48535 125.127 10.5626 139.438 25.0012 148.515H120.544C134.982 139.438 144.06 125.127 144.06 105.446C144.06 82.6666 131.893 56.62 113.332 44.5547Z" fill="#DAE7EF"/>
<path d="M120.974 150H24.5703L24.2109 149.771C8.3703 139.815 0 124.488 0 105.446C0 81.2674 13.2059 55.1347 31.4049 43.3099L31.7733 43.0693H113.768L114.137 43.3099C132.339 55.1377 145.545 81.2674 145.545 105.446C145.545 124.488 137.174 139.815 121.334 149.771L120.974 150ZM25.4347 147.03H120.113C134.81 137.641 142.574 123.27 142.574 105.446C142.574 82.3634 130.111 57.4693 112.886 46.0396H32.6584C15.4337 57.4693 2.9703 82.3634 2.9703 105.446C2.9703 123.27 10.7347 137.641 25.4347 147.03Z" fill="#BBD7EA"/>
<path d="M93.5642 35.6437V29.7031H31.188V44.5546H114.356V37.2269C114.356 36.3536 113.649 35.6437 112.773 35.6437H93.5642Z" fill="#E6E6E6"/>
<path d="M101.385 20.7921H106.538C110.854 20.7921 114.356 17.2901 114.356 12.9713V0L13.3662 11.8812L31.188 29.703H93.5642V28.6129C93.5642 24.2941 97.0662 20.7921 101.385 20.7921Z" fill="#546A79"/>
<path d="M108.861 20.792H101.385C97.0664 20.792 93.5645 24.294 93.5645 28.6128V35.6435H110.587C130.981 35.6435 148.637 51.1247 149.914 71.4801C149.967 72.3534 149.997 73.2415 150 74.1474C150.006 77.0049 152.059 79.6157 154.874 80.1059C158.626 80.7563 161.881 77.887 161.881 74.2573C161.881 73.7851 161.878 73.3187 161.872 72.8554C161.468 43.9455 137.774 20.792 108.861 20.792Z" fill="#38454F"/>
<path d="M25.0013 148.515H120.544C131.887 141.383 139.898 131.005 142.821 117.345C137.876 113.733 130.777 114.018 126.238 118.298C121.313 122.941 113.341 122.941 108.416 118.298C103.491 113.656 95.5191 113.656 90.5944 118.298C85.6696 122.941 77.6973 122.941 72.7726 118.298C67.8478 113.656 59.8755 113.656 54.9508 118.298C50.026 122.941 42.0538 122.941 37.129 118.298C32.2043 113.656 24.232 113.656 19.3072 118.298C14.9349 122.421 8.17455 122.864 3.26465 119.668C6.56762 132.19 14.3082 141.793 25.0013 148.515Z" fill="#4C312C"/>
<path d="M51.9801 100.99H31.1881C29.5455 100.99 28.2178 99.6622 28.2178 98.0196C28.2178 96.377 29.5455 95.0493 31.1881 95.0493H51.9801C53.6227 95.0493 54.9504 96.377 54.9504 98.0196C54.9504 99.6622 53.6227 100.99 51.9801 100.99Z" fill="#BBD7EA"/>
<path d="M51.98 89.1091H37.1285C35.4859 89.1091 34.1582 87.7813 34.1582 86.1388C34.1582 84.4962 35.4859 83.1685 37.1285 83.1685H51.98C53.6226 83.1685 54.9503 84.4962 54.9503 86.1388C54.9503 87.7813 53.6226 89.1091 51.98 89.1091Z" fill="#BBD7EA"/>
<path d="M51.9801 77.2277H31.1881C29.5455 77.2277 28.2178 75.9 28.2178 74.2574C28.2178 72.6148 29.5455 71.2871 31.1881 71.2871H51.9801C53.6227 71.2871 54.9504 72.6148 54.9504 74.2574C54.9504 75.9 53.6227 77.2277 51.9801 77.2277Z" fill="#BBD7EA"/>
<path d="M51.98 65.3464H37.1285C35.4859 65.3464 34.1582 64.0186 34.1582 62.3761C34.1582 60.7335 35.4859 59.4058 37.1285 59.4058H51.98C53.6226 59.4058 54.9503 60.7335 54.9503 62.3761C54.9503 64.0186 53.6226 65.3464 51.98 65.3464Z" fill="#BBD7EA"/>
</svg>
