<svg width="152" height="130" viewBox="0 0 192 150" fill="none" xmlns="http://www.w3.org/2000/svg">
<path d="M150.286 129.755L143.484 89.0332H143.464C142.519 83.5267 138.734 77.8245 132.289 76.02C132.209 75.9975 132.13 75.9802 132.048 75.9686L116.177 73.587C116.08 73.5723 115.872 73.5645 115.773 73.5645C114.769 73.5645 113.922 74.313 113.8 75.3101C112.955 82.1718 107.282 87.5595 99.9813 89.0332H92.0159C84.7147 87.5595 79.0413 82.1726 78.1983 75.3101C78.0738 74.2841 77.1498 73.5123 76.1748 73.5656C76.0582 73.5588 75.9438 73.5686 75.8216 73.587L59.9504 75.9686C59.8691 75.9802 59.7892 75.9978 59.7097 76.02C53.2642 77.8245 49.4786 83.5271 48.5343 89.0332H48.5144L41.7119 129.755C40.3046 137.149 45.9738 144 53.5012 144H53.9999H138H138.499C146.026 144 151.695 137.149 150.286 129.755Z" fill="#1ABAFF"/>
<path d="M96.0003 71.5759C89.0553 71.5759 82.7546 68.5958 78.1057 63.7793C78.1023 66.666 77.9973 70.8323 77.2319 73.8724C77.7341 74.1792 78.1237 74.6832 78.1994 75.3098C79.1917 83.3832 86.8436 89.4702 96.0003 89.4702C105.155 89.4702 112.807 83.382 113.801 75.3098C113.878 74.682 114.259 74.1792 114.769 73.8732C114.004 70.833 113.898 66.666 113.895 63.7793C109.246 68.5958 102.945 71.5759 96.0003 71.5759Z" fill="#FDC88E"/>
<path d="M113.507 64.1457C108.897 68.7375 102.76 71.5759 96.0003 71.5759C89.0553 71.5759 82.7546 68.5958 78.1057 63.7793C78.1023 66.666 77.9973 70.8323 77.2319 73.8724C77.7341 74.1792 78.1237 74.6832 78.1994 75.3098C78.6382 78.8783 80.3808 82.0557 82.9769 84.4939C94.9481 82.8079 108.535 70.9872 113.507 64.1457Z" fill="#FFB980"/>
<path d="M113.894 21.8706H80.0941C74.6127 21.8706 70.1528 26.3305 70.1528 31.8119V43.7414C70.1528 59.0897 81.7482 71.5765 95.9997 71.5765C110.251 71.5765 121.847 59.0897 121.847 43.7414V29.8236C121.847 25.4384 118.28 21.8706 113.894 21.8706Z" fill="#FFE1B2"/>
<path d="M109.917 0H84.0706C80.3311 0 77.1875 2.59388 76.3411 6.0765C69.497 6.9465 64.1885 12.8062 64.1885 19.8825V29.8237C64.1885 34.9478 66.3638 39.7279 70.1532 43.125V31.812C70.1532 26.3306 74.6131 21.8708 80.0945 21.8708H113.894C118.28 21.8708 121.847 25.4385 121.847 29.8237V43.1227C125.637 39.7264 127.812 34.9463 127.812 29.8237V17.8943C127.812 8.02763 119.785 0 109.917 0Z" fill="#7E5449"/>
<path d="M132 144H60C58.3432 144 57 142.657 57 141V102C57 100.343 58.3432 99 60 99H132C133.657 99 135 100.343 135 102V141C135 142.657 133.657 144 132 144Z" fill="#D8DCE1"/>
<path d="M189 150H3C1.34175 150 0 148.657 0 147C0 145.343 1.34175 144 3 144H189C190.658 144 192 145.343 192 147C192 148.657 190.658 150 189 150Z" fill="#9F6459"/>
<path d="M96 129C99.3137 129 102 126.314 102 123C102 119.686 99.3137 117 96 117C92.6863 117 90 119.686 90 123C90 126.314 92.6863 129 96 129Z" fill="white"/>
</svg>
