<svg xmlns="http://www.w3.org/2000/svg" viewBox="0 0 225.97 42.49"><defs><style>.cls-1{fill:#0b6e4f;}.cls-2{fill:#08a045;}</style></defs><g id="Layer_2" data-name="Layer 2"><g id="Layer_1-2" data-name="Layer 1"><path d="M81.43,27.67V40.26a2.23,2.23,0,0,1-2.23,2.23H72a2.23,2.23,0,0,1-2.23-2.23V2.66A2.23,2.23,0,0,1,72,.43h7.56a2.22,2.22,0,0,1,1.9,1.07L94.71,23.14a2.24,2.24,0,0,0,3.8,0L111.8,1.5A2.22,2.22,0,0,1,113.7.43h7.56a2.23,2.23,0,0,1,2.23,2.23v37.6a2.23,2.23,0,0,1-2.23,2.23H114a2.23,2.23,0,0,1-2.23-2.23V27.67a2.23,2.23,0,0,0-4.13-1.17L98.51,41.43a2.21,2.21,0,0,1-1.9,1.06h0a2.21,2.21,0,0,1-1.9-1.06L85.56,26.5A2.23,2.23,0,0,0,81.43,27.67Z"/><path d="M165.5,40.51l-1.94-4.08a3.49,3.49,0,0,0-3.15-2h-15a3.49,3.49,0,0,0-3.15,2l-1.94,4.08a3.49,3.49,0,0,1-3.15,2H133a3.48,3.48,0,0,1-3.14-5L146.72,2.41a3.48,3.48,0,0,1,3.14-2h6.06a3.48,3.48,0,0,1,3.14,2L175.88,37.5a3.48,3.48,0,0,1-3.14,5h-4.09A3.49,3.49,0,0,1,165.5,40.51ZM156,20.77h0a3.47,3.47,0,0,0-6.28,0h0a3.48,3.48,0,0,0,3.14,5h0A3.48,3.48,0,0,0,156,20.77Z"/><path d="M185.59,35.83,195.05,24a4.1,4.1,0,0,0-.08-5.23L185.1,7.19A4.1,4.1,0,0,1,188.22.43h4.83a4.1,4.1,0,0,1,3.13,1.45l5.33,6.28a4.1,4.1,0,0,0,6.33-.08L212.74,2a4.1,4.1,0,0,1,3.2-1.54h4.35a4.1,4.1,0,0,1,3.19,6.67l-9,11.2a4.1,4.1,0,0,0,.08,5.24L225,35.72a4.1,4.1,0,0,1-3.12,6.77H217a4.12,4.12,0,0,1-3.12-1.44L208,34.15a4.11,4.11,0,0,0-6.33.09L196.3,41a4.09,4.09,0,0,1-3.2,1.53h-4.31A4.1,4.1,0,0,1,185.59,35.83Z"/><path class="cls-1" d="M36.49,42.06c-4.88,0-8.75-1.68-11.13-4.61a7.27,7.27,0,0,1-1.65-6.72c2-8,8.39-8.72,7.14-9-.62-.14-2.48.8-3.65,1.6-.73.5-3.47,3-4,4.65-.11.32-.57.05-.57,0C22.48,23,21.9,6,22.69,2.76,22.88,2,23.47,1,25.45,0h35C62,0,63.25,1.67,63.25,3.2V8a2.77,2.77,0,0,1-2.76,2.76H36.61a2.76,2.76,0,0,0-2.76,2.76c0,.9.18,2.85.18,4-.15.09-1.88,3.39-1,3.15,4-6.37,16.8-4.48,18.65-4.31,1.6.15,3.69.58,3.69.58s.13,1.2-2.57,4.33a13.38,13.38,0,0,1-8.43,3.68,17.59,17.59,0,0,1-7.86-1c-2-.71-2.56,3.65-2.51,4.1.33,2.82,1.66,3.33,6.91,3.33H60.49a2.76,2.76,0,0,1,2.76,2.76v5.21a2.76,2.76,0,0,1-2.77,2.76Z"/><path class="cls-2" d="M1.76,15.33c3.55,1.71,3,9.21,7.68,11.52,2.24,1.1,3.33.25,6.44,2.47,3.52,2.51,5.15,8.07,5.83,7.82.48-.18-.76-4.61-1.57-6.33a20.66,20.66,0,0,0-1.75-3.25c-1.19-2-3.37-3.76-3.87-4.85C14.2,22,17,24.26,18.7,26.61c2.26,3.1,2.88,6.17,3.29,5.87a11.26,11.26,0,0,0-.35-4,21.5,21.5,0,0,0-5.83-9.21A22.05,22.05,0,0,0,2.73,14.36c-.42,0-2.7,0-2.73.29S1.1,15,1.76,15.33Z"/><text/><path class="cls-2" d="M21.17,5.14c-1.77.86-1.5,4.61-3.84,5.76-1.12.55-1.66.12-3.22,1.24-1.76,1.25-2.57,4-2.91,3.9s.42-2.28.78-3.16c.27-.67.61-1.35.71-1.54s2-2.84,2.09-2.78a26.54,26.54,0,0,0-2.08,2.22c-.7,1-1.44,3.08-1.64,2.93a11.2,11.2,0,0,1,.17-2,10.18,10.18,0,0,1,2.92-4.61,11.1,11.1,0,0,1,6.54-2.44c.21,0,1.34,0,1.36.15S21.5,5,21.17,5.14Z"/><path class="cls-2" d="M42.41,17.14a35.59,35.59,0,0,1,9.17.6,10.3,10.3,0,0,1-6.27,1.79c-2.87-.15-2.51-.22-4.25-.19a20.48,20.48,0,0,0-5.71,1.39S38.6,17.44,42.41,17.14Z"/></g></g></svg>