<svg width="218" height="150" viewBox="0 0 218 150" fill="none" xmlns="http://www.w3.org/2000/svg">
<path d="M206.673 23.078C203.475 22.1918 200.405 22.3694 197.685 23.3061C195.831 23.945 193.893 22.8035 193.108 21.0058C189.64 13.0585 181.726 7.49951 172.5 7.49951C162.66 7.49951 154.317 13.8266 151.261 22.6264C150.838 22.5907 150.432 22.4994 150 22.4994C141.23 22.4994 134.217 30.0261 135.07 38.9725C135.814 46.7715 142.81 52.4991 150.645 52.4991H202.501C211.898 52.4991 219.276 43.8582 217.124 34.0885C215.969 28.8417 211.852 24.513 206.673 23.078Z" fill="#E4EAF8"/>
<path d="M110.97 63.7501C118.616 59.1618 123.75 50.8165 123.75 41.2499C123.75 26.7525 111.997 14.9999 97.4999 14.9999C95.9392 14.9999 94.4184 15.1617 92.9324 15.4226L92.9341 15.4115C91.3908 15.6893 89.7808 15.0271 88.9286 13.7114C83.5846 5.463 74.3098 0 63.7496 0C51.3011 0 40.6508 7.59297 36.116 18.3936C35.3182 20.2942 33.1806 21.3511 31.2847 20.5419C27.0524 18.7365 22.1582 18.1863 17.0529 19.3953C8.80443 21.3486 2.22972 28.1179 0.503311 36.4173C-2.52088 50.955 8.49517 63.7501 22.4997 63.7501H110.97Z" fill="#E4EAF8"/>
<path d="M153.75 41.2504C153.75 32.9663 160.465 26.2505 168.75 26.2505C169.182 26.2505 169.589 26.3419 170.011 26.3776C172.486 19.2485 178.458 13.8076 185.86 11.9737C182.121 9.19122 177.522 7.50049 172.5 7.50049C162.66 7.50049 154.317 13.8275 151.261 22.6274C150.838 22.5917 150.432 22.5004 150 22.5004C141.716 22.5004 135 29.2161 135 37.5002C135 45.7844 141.716 52.5001 150 52.5001C152.362 52.5001 155.446 52.5001 158.923 52.5001C155.778 49.7508 153.75 45.7559 153.75 41.2504Z" fill="#D5DCED"/>
<path d="M23.0036 43.9168C24.73 35.6182 31.3047 28.8485 39.5532 26.8948C44.6589 25.6859 49.5527 26.236 53.785 28.0414C55.6809 28.8506 57.8185 27.7937 58.6163 25.8932C62.8406 15.8321 72.3957 8.63927 83.7431 7.69025C78.4369 2.92479 71.4454 0 63.7501 0C51.3016 0 40.6513 7.59297 36.1165 18.3936C35.3187 20.2942 33.1811 21.3511 31.2852 20.5419C27.0529 18.7365 22.1587 18.1863 17.0534 19.3953C8.80492 21.3486 2.23021 28.1179 0.503799 36.4173C-2.52039 50.955 8.49566 63.7501 22.5002 63.7501H28.2716C23.7203 58.6779 21.4157 51.548 23.0036 43.9168Z" fill="#D5DCED"/>
<path d="M184.091 75.2303C179.477 74.7121 175.041 75.0919 170.874 76.1551C168.974 76.6398 167 75.5494 166.467 73.6624C159.351 48.4702 136.219 30.0005 108.75 30.0005C86.936 30.0005 67.8406 41.6423 57.3381 59.0516C56.503 60.4357 54.9261 61.1255 53.3386 60.8184C45.8973 59.3783 37.851 59.6672 29.3244 63.086C12.3504 69.8923 0.29062 85.9979 0.00557541 104.283C-0.386095 129.464 19.9085 150 45.0001 150H178.677C195.163 150 210.394 139.876 215.583 124.227C223.313 100.914 206.632 77.7618 184.091 75.2303Z" fill="#D5DCED"/>
<path d="M37.5057 111.784C37.7904 93.4983 49.8506 77.3926 66.8245 70.586C75.3508 67.1667 83.3966 66.8783 90.8388 68.3183C92.4258 68.6255 94.0027 67.936 94.8383 66.5516C104.091 51.2131 120.019 40.3628 138.595 37.9962C129.803 32.9333 119.628 30.0005 108.751 30.0005C86.9361 30.0005 67.8411 41.6418 57.3386 59.0516C56.5039 60.4357 54.9266 61.1255 53.3391 60.8184C45.8978 59.3783 37.8511 59.6668 29.3248 63.086C12.3509 69.8923 0.291108 85.9975 0.00606369 104.283C-0.385607 129.464 19.909 150 45.0006 150H57.664C45.3353 141.819 37.2572 127.745 37.5057 111.784Z" fill="#C7CFE2"/>
</svg>
