<svg width="67" height="150" viewBox="0 0 67 150" fill="none" xmlns="http://www.w3.org/2000/svg">
<path d="M63.6238 27.8741H57.4781C55.6478 27.8741 54.1533 26.3797 54.1533 24.5494C54.1533 22.7191 55.6478 21.2246 57.4781 21.2246H63.6238C65.4541 21.2246 66.9486 22.7191 66.9486 24.5494C66.9486 26.3797 65.4541 27.8741 63.6238 27.8741ZM63.6238 40.3503H57.4781C55.6478 40.3503 54.1533 38.8559 54.1533 37.0256C54.1533 35.1953 55.6478 33.7008 57.4781 33.7008H63.6238C65.4541 33.7008 66.9486 35.1953 66.9486 37.0256C66.9486 38.8559 65.4541 40.3503 63.6238 40.3503ZM63.6238 52.8265H57.4781C55.6478 52.8265 54.1533 51.3321 54.1533 49.5018C54.1533 47.6715 55.6478 46.177 57.4781 46.177H63.6238C65.4541 46.177 66.9486 47.6715 66.9486 49.5018C66.9486 51.3153 65.4541 52.8265 63.6238 52.8265Z" fill="#1A1A1A"/>
<path d="M48.7966 88.0387V15.801C48.7966 7.08608 41.7105 0 32.9956 0C24.2808 0 17.1947 7.08608 17.1947 15.801V88.0387C6.95175 93.6471 0 104.528 0 117.004C0 135.207 14.8103 150 32.9956 150C51.181 150 65.9913 135.19 65.9913 117.004C65.9913 104.528 59.0227 93.6471 48.7966 88.0387ZM32.9788 143.065C18.6052 143.065 6.90137 131.361 6.90137 116.988C6.90137 108.541 10.9314 101.035 17.1779 96.2666C19.26 94.6714 21.5941 93.3785 24.096 92.4717V15.801C24.096 10.8978 28.0757 6.91817 32.9788 6.91817C37.882 6.91817 41.8616 10.8978 41.8616 15.801V92.4717C44.3636 93.3785 46.6976 94.6714 48.7798 96.2666C55.0095 101.035 59.0563 108.541 59.0563 116.988C59.0563 131.378 47.3693 143.065 32.9788 143.065Z" fill="#1A1A1A"/>
<path d="M19.0415 117.726C19.0415 119.563 19.4033 121.382 20.1062 123.079C20.8092 124.776 21.8395 126.318 23.1383 127.617C24.4372 128.916 25.9792 129.946 27.6762 130.649C29.3732 131.352 31.1921 131.714 33.029 131.714C34.8658 131.714 36.6847 131.352 38.3817 130.649C40.0788 129.946 41.6207 128.916 42.9196 127.617C44.2185 126.318 45.2488 124.776 45.9517 123.079C46.6546 121.382 47.0164 119.563 47.0164 117.726C47.0164 114.017 45.5428 110.459 42.9196 107.836C40.2964 105.212 36.7387 103.739 33.029 103.739C29.3193 103.739 25.7615 105.212 23.1383 107.836C20.5152 110.459 19.0415 114.017 19.0415 117.726Z" fill="#2FBCF9"/>
<path d="M50.4758 117.844C48.8806 117.542 47.3358 118.465 46.8321 119.976C45.7574 126.626 39.9811 131.714 33.0293 131.714C25.3051 131.714 19.0418 125.451 19.0418 117.726C19.0418 110.002 25.3051 103.739 33.0293 103.739C34.1543 103.739 35.2458 103.873 36.2869 104.125C36.3037 103.991 36.3205 103.856 36.3205 103.739V23.8945C36.3205 22.1314 34.8764 20.7041 33.1301 20.7041C31.3669 20.7041 29.9396 22.1482 29.9396 23.8945V97.7947C29.7885 97.7947 29.6206 97.8115 29.4695 97.845C21.2416 99.3731 14.8943 105.67 13.2991 113.881C11.1665 124.829 18.3534 135.475 29.3016 137.591C30.5945 137.843 31.8875 137.96 33.1636 137.96C42.6509 137.96 51.1475 131.244 53.0114 121.588C53.3304 119.859 52.2054 118.18 50.4758 117.844Z" fill="#1A1A1A"/>
</svg>
