<svg width="218" height="150" viewBox="0 0 218 150" fill="none" xmlns="http://www.w3.org/2000/svg">
<path d="M206.673 23.078C203.475 22.1918 200.405 22.3694 197.685 23.3061C195.831 23.945 193.893 22.8035 193.108 21.0058C189.64 13.0585 181.726 7.49951 172.5 7.49951C162.66 7.49951 154.317 13.8266 151.261 22.6264C150.838 22.5907 150.432 22.4994 150 22.4994C141.23 22.4994 134.217 30.0261 135.07 38.9725C135.814 46.7715 142.81 52.4991 150.645 52.4991H202.501C211.898 52.4991 219.276 43.8582 217.124 34.0885C215.969 28.8417 211.852 24.513 206.673 23.078Z" fill="#E4EAF8"/>
<path d="M110.97 63.7501C118.616 59.1618 123.75 50.8165 123.75 41.2499C123.75 26.7525 111.997 14.9999 97.4999 14.9999C95.9392 14.9999 94.4184 15.1617 92.9324 15.4226L92.9341 15.4115C91.3908 15.6893 89.7808 15.0271 88.9286 13.7114C83.5846 5.463 74.3098 0 63.7496 0C51.3011 0 40.6508 7.59297 36.116 18.3936C35.3182 20.2942 33.1806 21.3511 31.2847 20.5419C27.0524 18.7365 22.1582 18.1863 17.0529 19.3953C8.80443 21.3486 2.22972 28.1179 0.503311 36.4173C-2.52088 50.955 8.49517 63.7501 22.4997 63.7501H110.97Z" fill="#E4EAF8"/>
<path d="M153.75 41.2504C153.75 32.9663 160.465 26.2505 168.75 26.2505C169.182 26.2505 169.589 26.3419 170.011 26.3776C172.486 19.2485 178.458 13.8076 185.86 11.9737C182.121 9.19122 177.522 7.50049 172.5 7.50049C162.66 7.50049 154.317 13.8275 151.261 22.6274C150.838 22.5917 150.432 22.5004 150 22.5004C141.716 22.5004 135 29.2161 135 37.5002C135 45.7844 141.716 52.5001 150 52.5001C152.362 52.5001 155.446 52.5001 158.923 52.5001C155.778 49.7508 153.75 45.7559 153.75 41.2504Z" fill="#D5DCED"/>
<path d="M23.0036 43.9168C24.73 35.6182 31.3047 28.8485 39.5532 26.8948C44.6589 25.6859 49.5527 26.236 53.785 28.0414C55.6809 28.8506 57.8185 27.7937 58.6163 25.8932C62.8406 15.8321 72.3957 8.63927 83.7431 7.69025C78.4369 2.92479 71.4454 0 63.7501 0C51.3016 0 40.6513 7.59297 36.1165 18.3936C35.3187 20.2942 33.1811 21.3511 31.2852 20.5419C27.0529 18.7365 22.1587 18.1863 17.0534 19.3953C8.80492 21.3486 2.23021 28.1179 0.503799 36.4173C-2.52039 50.955 8.49566 63.7501 22.5002 63.7501H28.2716C23.7203 58.6779 21.4157 51.548 23.0036 43.9168Z" fill="#D5DCED"/>
<path d="M184.091 75.2303C179.477 74.7121 175.041 75.0919 170.874 76.1551C168.974 76.6398 167 75.5494 166.467 73.6624C159.351 48.4702 136.219 30.0005 108.75 30.0005C86.936 30.0005 67.8406 41.6423 57.3381 59.0516C56.503 60.4357 54.9261 61.1255 53.3386 60.8184C45.8973 59.3783 37.851 59.6672 29.3244 63.086C12.3504 69.8923 0.29062 85.9979 0.00557541 104.283C-0.386095 129.464 19.9085 150 45.0001 150H178.677C195.163 150 210.394 139.876 215.583 124.227C223.313 100.914 206.632 77.7618 184.091 75.2303Z" fill="#D5DCED"/>
<path d="M37.5057 111.784C37.7904 93.4983 49.8506 77.3926 66.8245 70.586C75.3508 67.1667 83.3966 66.8783 90.8388 68.3183C92.4258 68.6255 94.0027 67.936 94.8383 66.5516C104.091 51.2131 120.019 40.3628 138.595 37.9962C129.803 32.9333 119.628 30.0005 108.751 30.0005C86.9361 30.0005 67.8411 41.6418 57.3386 59.0516C56.5039 60.4357 54.9266 61.1255 53.3391 60.8184C45.8978 59.3783 37.8511 59.6668 29.3248 63.086C12.3509 69.8923 0.291108 85.9975 0.00606369 104.283C-0.385607 129.464 19.909 150 45.0006 150H57.664C45.3353 141.819 37.2572 127.745 37.5057 111.784Z" fill="#C7CFE2"/>
<path d="M123.024 126.855C110.75 126.855 100.766 116.871 100.766 104.597V89.7582C100.766 77.4844 110.75 67.5 123.024 67.5C135.298 67.5 145.282 77.484 145.282 89.7582V104.597C145.282 116.871 135.298 126.855 123.024 126.855ZM123.024 74.9197C114.84 74.9197 108.185 81.5762 108.185 89.7582V104.597C108.185 112.779 114.841 119.435 123.024 119.435C131.207 119.435 137.862 112.779 137.862 104.597V89.7582C137.863 81.5762 131.207 74.9197 123.024 74.9197Z" fill="#707487"/>
<path d="M78.5077 126.855C66.2339 126.855 56.2495 116.871 56.2495 104.597V89.7582C56.2495 77.4844 66.2335 67.5 78.5077 67.5C85.5647 67.5 92.0532 70.7383 96.2988 76.3863C97.5305 78.0235 97.2044 80.3495 95.5672 81.5813C93.9224 82.813 91.6039 82.4814 90.3722 80.8458C87.5356 77.0801 83.2135 74.9193 78.5077 74.9193C70.324 74.9193 63.6692 81.5758 63.6692 89.7578V104.596C63.6692 112.778 70.3245 119.435 78.5077 119.435C83.2173 119.435 87.5461 117.27 90.3794 113.497C91.6073 111.86 93.9404 111.53 95.5743 112.758C97.2116 113.989 97.5414 116.315 96.3135 117.953C92.0637 123.611 85.5757 126.855 78.5077 126.855Z" fill="#707487"/>
<path d="M167.54 134.274H152.701C150.651 134.274 148.991 132.612 148.991 130.564V128.709C148.991 126.383 150.103 124.164 151.966 122.771L162.348 114.984C163.276 114.287 163.83 113.177 163.83 112.016C163.83 109.971 162.167 108.306 160.12 108.306C158.073 108.306 156.41 109.971 156.41 112.016C156.41 114.064 154.751 115.726 152.701 115.726C150.65 115.726 148.991 114.064 148.991 112.016C148.991 105.879 153.983 100.887 160.12 100.887C166.257 100.887 171.249 105.879 171.249 112.016C171.249 115.497 169.586 118.825 166.8 120.917L158.885 126.855H167.54C169.59 126.855 171.249 128.516 171.249 130.565C171.249 132.613 169.59 134.274 167.54 134.274Z" fill="#707487"/>
</svg>
