<svg width="146" height="150" viewBox="0 0 146 150" fill="none" xmlns="http://www.w3.org/2000/svg">
<path d="M43.8245 137.571C19.6577 137.571 0 117.913 0 93.7461C0 71.2512 34.5867 27.0214 38.5385 22.0563C39.518 20.8235 40.9873 20.0973 42.5579 20.0804C44.1454 20.0635 45.6146 20.739 46.6279 21.9381C46.8812 22.2421 52.9947 29.5039 60.5099 39.7043C62.2156 42.0349 61.7258 45.3111 59.3953 47.0168C57.0647 48.7225 53.7885 48.2328 52.0828 45.9022C48.4856 41.0047 45.1755 36.7827 42.7437 33.7259C31.0571 49.2629 10.4537 79.577 10.4537 93.7461C10.4537 112.137 25.4165 127.117 43.8245 127.117C62.2325 127.117 77.1953 112.137 77.1953 93.7461C77.1953 90.8582 79.5427 88.5108 82.4306 88.5108C85.3184 88.5108 87.6659 90.8582 87.6659 93.7461C87.649 117.913 67.9913 137.571 43.8245 137.571Z" fill="#1A1A1A"/>
<path d="M47.8777 67.7044C43.166 77.7865 39.9741 87.2439 39.9741 94.4551C39.9741 122.253 62.5028 144.781 90.3005 144.781C118.098 144.781 140.627 122.253 140.627 94.4551C140.627 92.2934 140.306 89.9122 139.698 87.379C84.4404 93.104 91.584 54.4641 47.8777 67.7044Z" fill="#2FBCF9"/>
<path d="M42.7943 84.3896C36.343 124.904 63.5666 144.798 91.3137 144.798C106.986 144.798 115.784 142.755 125.022 131.524C80.8599 135.02 52.6231 114.771 42.7943 84.3896Z" fill="#2FBCF9"/>
<path d="M90.3002 150C59.6653 150 34.7554 125.073 34.7554 94.4552C34.7554 65.1713 82.6161 4.5432 84.6596 1.97621C85.6391 0.743383 87.1083 0.0171973 88.6789 0.000309235C90.2495 -0.0165788 91.7357 0.658943 92.749 1.858C93.0867 2.24642 101.024 11.6868 110.785 24.9271C112.491 27.2576 112.001 30.5339 109.671 32.2396C107.34 33.9453 104.064 33.4555 102.358 31.125C96.9878 23.8294 92.1241 17.6483 88.8647 13.6121C73.7668 33.4724 45.2091 75.0508 45.2091 94.4552C45.2091 119.314 65.441 139.546 90.3002 139.546C115.159 139.546 135.391 119.314 135.391 94.4552C135.391 89.4394 133.162 79.6106 122.489 61.3208C121.036 58.8214 121.881 55.6296 124.38 54.1772C126.88 52.7248 130.072 53.5692 131.524 56.0686C141.167 72.6021 145.845 85.1499 145.845 94.4721C145.845 125.09 120.918 150 90.3002 150Z" fill="#1A1A1A"/>
</svg>
