<svg width="152" height="130" viewBox="0 0 134 150" fill="none" xmlns="http://www.w3.org/2000/svg">
<path opacity="0.4" d="M114.389 27.5283L26.3282 115.589C23.0278 118.889 17.4771 118.439 14.7768 114.539C5.47566 100.962 0 84.9102 0 68.4082V35.4793C0 29.3285 4.65056 22.3527 10.3512 20.0274L52.1314 2.92535C61.5825 -0.975117 72.0838 -0.975117 81.5349 2.92535L111.839 15.3018C116.864 17.327 118.139 23.7779 114.389 27.5283Z" fill="#292D32"/>
<path d="M121.439 37.8053C126.315 33.6798 133.741 37.2051 133.741 43.5809V68.4088C133.741 105.088 107.112 139.442 70.7331 149.494C68.2578 150.169 65.5575 150.169 63.0072 149.494C52.3559 146.493 42.4547 141.468 33.9787 134.867C30.3783 132.091 30.0033 126.841 33.1537 123.615C49.5056 106.888 97.3613 58.1327 121.439 37.8053Z" fill="#292D32"/>
</svg>
