<svg width="152" height="130" viewBox="0 0 150 150" fill="none" xmlns="http://www.w3.org/2000/svg">
<path d="M144.827 49.1377H137.069V72.4136H144.827V49.1377Z" fill="#ED8A19"/>
<path d="M137.069 49.1377H129.311V72.4136H137.069V49.1377Z" fill="#EBBA16"/>
<path d="M118.966 49.1379H31.0347V3.47069C31.0347 1.55431 32.589 0 34.5054 0H115.495C117.411 0 118.966 1.55431 118.966 3.47069V49.1379Z" fill="#546A79"/>
<path d="M80.1725 59.4829H69.8276V72.4139H80.1725V59.4829Z" fill="#AFB6BB"/>
<path d="M115.495 64.6549H34.5054C32.589 64.6549 31.0347 63.1006 31.0347 61.1842V49.1377H118.966V61.1842C118.966 63.1006 117.411 64.6549 115.495 64.6549Z" fill="#E7ECED"/>
<path d="M150 72.4136H144.828H133.156H16.844H5.17241H0V82.7584H5.17241V150H11.6716L16.1534 82.7584H133.847L138.328 150H144.828V82.7584H150V72.4136Z" fill="#553323"/>
</svg>
